HIERARCHY
ROOT Hips
{
 OFFSET 0.000000 0.000000 0.000000
 CHANNELS 6 Xposition Yposition Zposition Yrotation Xrotation Zrotation
 JOINT Chest
 {
  OFFSET 0.000000 9.910571 -0.011835
  CHANNELS 3 Yrotation Xrotation Zrotation
  JOINT Chest2
  {
   OFFSET 0.000000 10.789473 0.021497
   CHANNELS 3 Yrotation Xrotation Zrotation
   JOINT Chest3
   {
    OFFSET 0.000000 9.748205 0.000000
    CHANNELS 3 Yrotation Xrotation Zrotation
    JOINT Chest4
    {
     OFFSET 0.000000 9.748205 0.000000
     CHANNELS 3 Yrotation Xrotation Zrotation
     JOINT Neck
     {
      OFFSET 0.000000 13.998479 0.000000
      CHANNELS 3 Yrotation Xrotation Zrotation
      JOINT Head
      {
       OFFSET 0.000000 9.082285 0.051121
       CHANNELS 3 Yrotation Xrotation Zrotation
       End Site
       {
        OFFSET 0.000000 17.246134 0.026702
       }
      }
     }
     JOINT RightCollar
     {
      OFFSET -3.284495 7.824262 0.000000
      CHANNELS 3 Yrotation Xrotation Zrotation
      JOINT RightShoulder
      {
       OFFSET -15.534540 0.000000 0.000000
       CHANNELS 3 Yrotation Xrotation Zrotation
       JOINT RightElbow
       {
        OFFSET 0.000000 -28.251216 0.000000
        CHANNELS 3 Yrotation Xrotation Zrotation
        JOINT RightWrist
        {
         OFFSET 0.000000 -23.418114 0.012537
         CHANNELS 3 Yrotation Xrotation Zrotation
         End Site
         {
          OFFSET 0.000000 -17.723959 0.000000
         }
        }
       }
      }
     }
     JOINT LeftCollar
     {
      OFFSET 3.284495 7.824262 0.000000
      CHANNELS 3 Yrotation Xrotation Zrotation
      JOINT LeftShoulder
      {
       OFFSET 15.534540 0.000000 0.000000
       CHANNELS 3 Yrotation Xrotation Zrotation
       JOINT LeftElbow
       {
        OFFSET 0.000000 -28.251216 0.000000
        CHANNELS 3 Yrotation Xrotation Zrotation
        JOINT LeftWrist
        {
         OFFSET 0.000000 -23.418114 0.012537
         CHANNELS 3 Yrotation Xrotation Zrotation
         End Site
         {
          OFFSET 0.000000 -17.723959 0.000000
         }
        }
       }
      }
     }
    }
   }
  }
 }
 JOINT RightHip
 {
  OFFSET -8.142657 0.057990 0.005917
  CHANNELS 3 Yrotation Xrotation Zrotation
  JOINT RightKnee
  {
   OFFSET 0.000000 -49.716894 0.008478
   CHANNELS 3 Yrotation Xrotation Zrotation
   JOINT RightAnkle
   {
    OFFSET 0.000000 -43.994153 0.004166
    CHANNELS 3 Yrotation Xrotation Zrotation
    JOINT RightToe
    {
     OFFSET 0.000000 -7.619154 17.822051
     CHANNELS 3 Yrotation Xrotation Zrotation
     End Site
     {
      OFFSET 0.000000 -1.595627 7.159905
     }
    }
   }
  }
 }
 JOINT LeftHip
 {
  OFFSET 8.142657 0.057990 0.005917
  CHANNELS 3 Yrotation Xrotation Zrotation
  JOINT LeftKnee
  {
   OFFSET 0.000000 -49.716894 0.008478
   CHANNELS 3 Yrotation Xrotation Zrotation
   JOINT LeftAnkle
   {
    OFFSET 0.000000 -43.994153 0.004166
    CHANNELS 3 Yrotation Xrotation Zrotation
    JOINT LeftToe
    {
     OFFSET 0.000000 -7.619154 17.822051
     CHANNELS 3 Yrotation Xrotation Zrotation
     End Site
     {
      OFFSET 0.000000 -1.595627 7.159905
     }
    }
   }
  }
 }
}
MOTION
Frames: 13
Frame Time: 0.008333
244.313592 56.066820 252.138791 -63.427973 -57.460139 4.153773 -0.783140 23.386199 -1.044472 -0.192383 10.386481 -0.540068 -0.192383 10.386481 -0.540068 -0.134621 7.790038 -0.400632 -1.730559 18.717817 -0.669929 -2.957329 -1.421794 -0.667562 -0.028199 10.104060 11.571496 16.494880 -22.286549 -20.439173 -15.744387 -38.187694 44.677757 -3.014338 -10.990762 4.833152 1.068831 9.250411 -10.113056 -9.597429 -20.976628 18.143672 9.938400 -49.802866 -30.813952 -6.872849 -6.635009 -10.849995 -8.271127 -30.181540 -6.455587 -99.284815 73.477383 -115.722713 -3.965320 -6.267466 6.185502 0.041499 0.434406 0.016308 4.397315 -29.590954 18.583615 130.201704 79.458604 136.612844 4.544131 -6.829231 -5.434200 -0.107477 -0.321420 -0.048242
244.312003 56.067751 252.136846 -63.433593 -57.458549 4.150916 -0.778885 23.390876 -1.035723 -0.192267 10.387706 -0.540272 -0.192267 10.387706 -0.540272 -0.134529 7.790957 -0.400786 -1.731755 18.713141 -0.662393 -2.961999 -1.430325 -0.653266 -0.031754 10.103793 11.570752 16.514477 -22.292689 -20.442483 -15.747270 -38.210411 44.648585 -2.981996 -10.942737 4.874981 1.063823 9.239933 -10.114861 -9.593733 -20.972927 18.140042 9.907222 -49.818505 -30.773498 -6.875474 -6.634103 -10.850080 -8.277909 -30.178742 -6.443555 -99.283525 73.494824 -115.722572 -3.978404 -6.267423 6.181870 0.041456 0.436701 0.017322 4.399576 -29.593021 18.597342 130.191084 79.455966 136.603329 4.534808 -6.832544 -5.434943 -0.101386 -0.321720 -0.044942
244.310737 56.069662 252.135656 -63.435130 -57.462816 4.150863 -0.777417 23.391276 -1.032323 -0.192428 10.387550 -0.540876 -0.192428 10.387550 -0.540876 -0.134639 7.790840 -0.401235 -1.733037 18.714156 -0.658269 -2.965683 -1.428347 -0.645305 -0.033314 10.111429 11.573872 16.512193 -22.285588 -20.446968 -15.783351 -38.221923 44.659905 -2.967351 -10.889790 4.933538 1.064273 9.245409 -10.120172 -9.602790 -20.969315 18.143879 9.916066 -49.822343 -30.769678 -6.903810 -6.616976 -10.858117 -8.275949 -30.170655 -6.440184 -99.264637 73.494185 -115.702590 -3.980862 -6.262311 6.181489 0.039318 0.435125 0.018491 4.397526 -29.586977 18.604907 130.186431 79.454532 136.595149 4.528642 -6.834296 -5.436068 -0.097734 -0.322902 -0.041966
244.309334 56.070698 252.135205 -63.438516 -57.460287 4.153709 -0.779434 23.392564 -1.035185 -0.193452 10.388065 -0.541547 -0.193452 10.388065 -0.541547 -0.135393 7.791228 -0.401719 -1.733071 18.711526 -0.655184 -2.966763 -1.433174 -0.639587 -0.030276 10.107773 11.572750 16.507966 -22.276824 -20.444451 -15.872490 -38.205205 44.719894 -2.948873 -10.828139 4.973021 1.082239 9.244332 -10.121896 -9.612151 -20.959282 18.142749 9.936876 -49.834237 -30.772115 -6.944315 -6.589120 -10.890077 -8.264098 -30.169982 -6.447730 -99.260291 73.491974 -115.689611 -3.969733 -6.261165 6.184020 0.030083 0.433557 0.015165 4.400439 -29.587902 18.608267 130.172456 79.451289 136.581042 4.522995 -6.837064 -5.438439 -0.092658 -0.323345 -0.039458
244.309057 56.070259 252.136281 -63.434958 -57.456025 4.154556 -0.778876 23.387603 -1.038885 -0.193624 10.387115 -0.542434 -0.193624 10.387115 -0.542434 -0.135508 7.790516 -0.402380 -1.736780 18.709755 -0.650074 -2.975240 -1.436326 -0.628978 -0.031159 10.110685 11.579625 16.496251 -22.270203 -20.436220 -15.979017 -38.182804 44.797602 -2.941091 -10.745726 5.012104 1.083350 9.251088 -10.117298 -9.610729 -20.958906 18.136740 9.977981 -49.823069 -30.804172 -6.995065 -6.560927 -10.897790 -8.258896 -30.175575 -6.455514 -99.273156 73.495167 -115.702327 -3.960667 -6.258062 6.189929 0.024941 0.429074 0.011717 4.395926 -29.593555 18.609387 130.215735 79.451810 136.616080 4.524795 -6.835716 -5.436314 -0.090639 -0.327197 -0.037573
244.307595 56.070357 252.135280 -63.437320 -57.453695 4.151530 -0.773416 23.387339 -1.035020 -0.192851 10.388244 -0.542562 -0.192851 10.388244 -0.542562 -0.134926 7.791361 -0.402488 -1.739193 18.705614 -0.645934 -2.981038 -1.443910 -0.620525 -0.026247 10.101377 11.583075 16.471362 -22.265306 -20.419404 -16.069408 -38.153079 44.860423 -2.933495 -10.674067 5.074347 1.084748 9.255034 -10.116680 -9.602897 -20.966103 18.133599 10.030192 -49.815979 -30.848045 -7.048398 -6.522095 -10.919847 -8.260704 -30.177980 -6.450731 -99.272238 73.493997 -115.701138 -3.952653 -6.254792 6.190496 0.021699 0.424856 0.009646 4.397877 -29.598265 18.617480 130.249197 79.454739 136.653907 4.523350 -6.833933 -5.442082 -0.083172 -0.331038 -0.033126
244.306688 56.069593 252.134946 -63.424849 -57.451434 4.141786 -0.776293 23.385980 -1.033444 -0.193142 10.388767 -0.542716 -0.193142 10.388767 -0.542716 -0.135141 7.791754 -0.402598 -1.742214 18.702623 -0.641404 -2.988071 -1.449346 -0.611180 -0.029612 10.099413 11.584289 16.459246 -22.263807 -20.399029 -16.142355 -38.125751 44.903523 -2.907444 -10.626735 5.150599 1.079227 9.255173 -10.121907 -9.588930 -20.972516 18.128062 10.100384 -49.793232 -30.909062 -7.121936 -6.478191 -10.936477 -8.269062 -30.179890 -6.448948 -99.271485 73.491085 -115.699725 -3.957397 -6.258700 6.187954 0.025955 0.426715 0.011135 4.390479 -29.604753 18.616726 130.269954 79.453633 136.674721 4.529679 -6.827653 -5.440521 -0.085974 -0.336232 -0.035386
244.305395 56.068027 252.132704 -63.420027 -57.446242 4.133521 -0.774425 23.383445 -1.027832 -0.192942 10.389527 -0.543096 -0.192942 10.389527 -0.543096 -0.134984 7.792324 -0.402886 -1.745731 18.699444 -0.638977 -2.995334 -1.455165 -0.605527 -0.030781 10.095588 11.590299 16.449449 -22.263623 -20.385874 -16.184250 -38.099021 44.931600 -2.867482 -10.603344 5.211070 1.076391 9.255839 -10.123547 -9.570091 -20.980066 18.122172 10.184786 -49.772075 -30.976077 -7.191173 -6.427173 -10.984669 -8.274955 -30.184542 -6.438136 -99.257580 73.481688 -115.685095 -3.959611 -6.256898 6.186365 0.033910 0.425671 0.012420 4.385478 -29.614405 18.619100 130.275405 79.448260 136.684191 4.533645 -6.824815 -5.444285 -0.089199 -0.339304 -0.035902
244.304343 56.066757 252.131485 -63.432862 -57.442226 4.145648 -0.770106 23.384804 -1.030194 -0.191990 10.389754 -0.543516 -0.191990 10.389754 -0.543516 -0.134264 7.792494 -0.403216 -1.749016 18.696659 -0.637425 -3.001885 -1.460270 -0.601562 -0.032659 10.090398 11.597979 16.450284 -22.264156 -20.386478 -16.205637 -38.084830 44.941954 -2.852655 -10.599871 5.245648 1.071898 9.251980 -10.124255 -9.552986 -20.979904 18.110892 10.360983 -49.727243 -31.119228 -7.324567 -6.387916 -11.067287 -8.265899 -30.189362 -6.440477 -99.251705 73.480893 -115.678223 -3.954334 -6.254679 6.187177 0.030341 0.424954 0.011100 4.394544 -29.617396 18.619755 130.309375 79.453393 136.718313 4.537178 -6.831747 -5.444478 -0.090569 -0.334628 -0.035997
244.302232 56.067308 252.129311 -63.428483 -57.443139 4.136716 -0.760898 23.390425 -1.020483 -0.189423 10.390195 -0.541593 -0.189423 10.390195 -0.541593 -0.132377 7.792822 -0.401821 -1.758186 18.694639 -0.634965 -3.019522 -1.463874 -0.594036 -0.045773 10.088072 11.605145 16.451553 -22.257573 -20.396913 -16.205995 -38.093801 44.950002 -2.852201 -10.609818 5.246242 1.047962 9.253167 -10.125834 -9.535429 -20.978377 18.102851 10.580623 -49.670301 -31.309961 -7.461874 -6.356435 -11.152744 -8.273183 -30.182492 -6.423746 -99.227864 73.472409 -115.658232 -3.955642 -6.259697 6.188842 0.039582 0.429332 0.014049 4.390798 -29.615749 18.625327 130.352462 79.460173 136.764071 4.544668 -6.840569 -5.444985 -0.093413 -0.328630 -0.038205
244.303102 56.066289 252.128716 -63.426702 -57.438233 4.138989 -0.761348 23.385253 -1.024068 -0.187334 10.390649 -0.541471 -0.187334 10.390649 -0.541471 -0.130816 7.793160 -0.401765 -1.762923 18.693462 -0.632676 -3.028965 -1.465961 -0.588278 -0.052080 10.090441 11.608703 16.450122 -22.256101 -20.403975 -16.174311 -38.115215 44.937033 -2.857336 -10.622912 5.228874 1.040881 9.256399 -10.125612 -9.519353 -20.971802 18.092296 10.854595 -49.619456 -31.564533 -7.605204 -6.274675 -11.223981 -8.276405 -30.190035 -6.427244 -99.222988 73.476065 -115.657900 -3.946905 -6.255547 6.191041 0.034138 0.426536 0.011412 4.389578 -29.626090 18.621850 130.360620 79.456376 136.768566 4.542925 -6.829635 -5.437110 -0.100405 -0.337601 -0.042215
244.303049 56.066387 252.127203 -63.426330 -57.437483 4.137472 -0.757838 23.389719 -1.019513 -0.186631 10.391887 -0.540932 -0.186631 10.391887 -0.540932 -0.130298 7.794088 -0.401374 -1.768204 18.688104 -0.631691 -3.039013 -1.475834 -0.584655 -0.059908 10.082098 11.606547 16.450192 -22.247169 -20.410459 -16.132279 -38.145692 44.910933 -2.871407 -10.636957 5.212219 1.036509 9.251621 -10.130447 -9.496354 -20.977404 18.084315 11.103035 -49.583704 -31.794406 -7.705473 -6.181144 -11.311942 -8.280185 -30.188656 -6.419977 -99.201423 73.467074 -115.635883 -3.948230 -6.257343 6.185251 0.044652 0.428833 0.016087 4.379577 -29.623107 18.625429 130.372263 79.460148 136.773417 4.545191 -6.831999 -5.435327 -0.103236 -0.334127 -0.045444
244.302863 56.067247 252.126208 -63.426488 -57.439963 4.140536 -0.754424 23.394865 -1.016635 -0.185904 10.393584 -0.540008 -0.185904 10.393584 -0.540008 -0.129769 7.795359 -0.400694 -1.772936 18.684541 -0.631521 -3.047776 -1.482393 -0.582739 -0.066392 10.076713 11.600389 16.447090 -22.250686 -20.413856 -16.070611 -38.169211 44.875957 -2.879502 -10.668526 5.178664 1.028761 9.253958 -10.133428 -9.472797 -20.988864 18.068870 11.294657 -49.564167 -31.967940 -7.781674 -6.095268 -11.388803 -8.275961 -30.186452 -6.421133 -99.213480 73.465530 -115.643299 -3.960421 -6.256896 6.181369 0.050988 0.427223 0.019732 4.374401 -29.616700 18.625236 130.386229 79.461091 136.778349 4.549851 -6.838063 -5.432532 -0.106116 -0.330150 -0.046418
